<?xml version="1.0" standalone="no"?>
<!DOCTYPE svg PUBLIC "-//W3C//DTD SVG 20010904//EN"
 "http://www.w3.org/TR/2001/REC-SVG-20010904/DTD/svg10.dtd">
<svg version="1.0" xmlns="http://www.w3.org/2000/svg"
 width="500.000000pt" height="500.000000pt" viewBox="0 0 500.000000 500.000000"
 preserveAspectRatio="xMidYMid meet">

<g transform="translate(0.000000,500.000000) scale(0.100000,-0.100000)"
fill="#000000" stroke="none">
<path d="M3325 3469 c-271 -21 -484 -135 -576 -309 -21 -39 -24 -59 -24 -150
0 -97 2 -110 31 -170 17 -36 50 -86 73 -112 l43 -48 126 0 127 0 64 58 65 58
-50 24 c-68 33 -133 96 -160 155 -37 78 -34 182 7 264 36 72 101 129 182 159
185 70 373 10 454 -145 44 -83 56 -149 51 -262 -6 -107 -33 -190 -88 -264
l-31 -42 213 -3 c211 -3 213 -2 232 20 59 71 91 210 75 328 -39 286 -385 472
-814 439z"/>
<path d="M904 3373 c3 -32 9 -201 12 -375 l7 -318 197 0 197 0 7 328 c3 180 9
348 12 375 l6 47 -222 0 -222 0 6 -57z"/>
<path d="M2064 3388 c10 -67 26 -418 26 -570 l0 -138 195 0 195 0 0 199 c0
186 14 477 25 529 l5 22 -226 0 -226 0 6 -42z"/>
<path d="M916 1983 c-4 -186 -9 -362 -12 -390 l-6 -53 222 0 222 0 -6 48 c-3
26 -9 201 -12 390 l-7 342 -197 0 -197 0 -7 -337z"/>
<path d="M2090 2163 c0 -166 -16 -508 -26 -580 l-6 -43 226 0 226 0 -5 23
c-11 52 -25 344 -25 543 l0 214 -195 0 -195 0 0 -157z"/>
<path d="M3095 2257 c-220 -174 -341 -373 -399 -649 l-14 -68 693 0 693 0 11
33 c5 17 31 100 57 182 25 83 49 155 51 162 3 6 -41 -8 -97 -33 -137 -60 -258
-91 -404 -104 -170 -14 -896 -19 -896 -5 0 19 80 157 123 212 85 111 249 219
487 321 20 8 -2 11 -100 11 l-126 1 -79 -63z"/>
</g>
</svg>
